<svg width="170" height="144" viewBox="0 0 170 144" fill="none" xmlns="http://www.w3.org/2000/svg">
<g clip-path="url(#clip0_1759_14089)">
<path d="M1.76404 0.888184V6.15572" stroke="black" stroke-width="0.438961" stroke-linecap="round"/>
<path d="M-0.869751 3.52197H4.39778" stroke="black" stroke-width="0.438961" stroke-linecap="round"/>
<path d="M18.4446 0.888184V6.15572" stroke="black" stroke-width="0.438961" stroke-linecap="round"/>
<path d="M15.8108 3.52197H21.0783" stroke="black" stroke-width="0.438961" stroke-linecap="round"/>
<path d="M35.1251 0.888184V6.15572" stroke="black" stroke-width="0.438961" stroke-linecap="round"/>
<path d="M32.4913 3.52197H37.7589" stroke="black" stroke-width="0.438961" stroke-linecap="round"/>
<path d="M51.8057 0.888184V6.15572" stroke="black" stroke-width="0.438961" stroke-linecap="round"/>
<path d="M49.1719 3.52197H54.4394" stroke="black" stroke-width="0.438961" stroke-linecap="round"/>
<path d="M68.4861 0.888184V6.15572" stroke="black" stroke-width="0.438961" stroke-linecap="round"/>
<path d="M65.8523 3.52197H71.1198" stroke="black" stroke-width="0.438961" stroke-linecap="round"/>
<path d="M85.1666 0.888184V6.15572" stroke="black" stroke-width="0.438961" stroke-linecap="round"/>
<path d="M82.5328 3.52197H87.8004" stroke="black" stroke-width="0.438961" stroke-linecap="round"/>
<path d="M101.847 0.888184V6.15572" stroke="black" stroke-width="0.438961" stroke-linecap="round"/>
<path d="M99.2134 3.52197H104.481" stroke="black" stroke-width="0.438961" stroke-linecap="round"/>
<path d="M118.528 0.888184V6.15572" stroke="black" stroke-width="0.438961" stroke-linecap="round"/>
<path d="M115.894 3.52197H121.161" stroke="black" stroke-width="0.438961" stroke-linecap="round"/>
<path d="M135.208 0.888184V6.15572" stroke="black" stroke-width="0.438961" stroke-linecap="round"/>
<path d="M132.574 3.52197H137.842" stroke="black" stroke-width="0.438961" stroke-linecap="round"/>
<path d="M151.889 0.888184V6.15572" stroke="black" stroke-width="0.438961" stroke-linecap="round"/>
<path d="M149.255 3.52197H154.522" stroke="black" stroke-width="0.438961" stroke-linecap="round"/>
<path d="M168.569 0.888184V6.15572" stroke="black" stroke-width="0.438961" stroke-linecap="round"/>
<path d="M165.935 3.52197H171.203" stroke="black" stroke-width="0.438961" stroke-linecap="round"/>
</g>
<g clip-path="url(#clip1_1759_14089)">
<path d="M1.76404 18.0078V23.2753" stroke="black" stroke-width="0.438961" stroke-linecap="round"/>
<path d="M-0.869751 20.6416H4.39778" stroke="black" stroke-width="0.438961" stroke-linecap="round"/>
<path d="M18.4446 18.0078V23.2753" stroke="black" stroke-width="0.438961" stroke-linecap="round"/>
<path d="M15.8108 20.6416H21.0783" stroke="black" stroke-width="0.438961" stroke-linecap="round"/>
<path d="M35.1251 18.0078V23.2753" stroke="black" stroke-width="0.438961" stroke-linecap="round"/>
<path d="M32.4913 20.6416H37.7589" stroke="black" stroke-width="0.438961" stroke-linecap="round"/>
<path d="M51.8057 18.0078V23.2753" stroke="black" stroke-width="0.438961" stroke-linecap="round"/>
<path d="M49.1719 20.6416H54.4394" stroke="black" stroke-width="0.438961" stroke-linecap="round"/>
<path d="M68.4861 18.0078V23.2753" stroke="black" stroke-width="0.438961" stroke-linecap="round"/>
<path d="M65.8523 20.6416H71.1198" stroke="black" stroke-width="0.438961" stroke-linecap="round"/>
<path d="M85.1666 18.0078V23.2753" stroke="black" stroke-width="0.438961" stroke-linecap="round"/>
<path d="M82.5328 20.6416H87.8004" stroke="black" stroke-width="0.438961" stroke-linecap="round"/>
<path d="M101.847 18.0078V23.2753" stroke="black" stroke-width="0.438961" stroke-linecap="round"/>
<path d="M99.2134 20.6416H104.481" stroke="black" stroke-width="0.438961" stroke-linecap="round"/>
<path d="M118.528 18.0078V23.2753" stroke="black" stroke-width="0.438961" stroke-linecap="round"/>
<path d="M115.894 20.6416H121.161" stroke="black" stroke-width="0.438961" stroke-linecap="round"/>
<path d="M135.208 18.0078V23.2753" stroke="black" stroke-width="0.438961" stroke-linecap="round"/>
<path d="M132.574 20.6416H137.842" stroke="black" stroke-width="0.438961" stroke-linecap="round"/>
<path d="M151.889 18.0078V23.2753" stroke="black" stroke-width="0.438961" stroke-linecap="round"/>
<path d="M149.255 20.6416H154.522" stroke="black" stroke-width="0.438961" stroke-linecap="round"/>
<path d="M168.569 18.0078V23.2753" stroke="black" stroke-width="0.438961" stroke-linecap="round"/>
<path d="M165.935 20.6416H171.203" stroke="black" stroke-width="0.438961" stroke-linecap="round"/>
</g>
<g clip-path="url(#clip2_1759_14089)">
<path d="M1.76404 35.127V40.3945" stroke="black" stroke-width="0.438961" stroke-linecap="round"/>
<path d="M-0.869751 37.7607H4.39778" stroke="black" stroke-width="0.438961" stroke-linecap="round"/>
<path d="M18.4446 35.127V40.3945" stroke="black" stroke-width="0.438961" stroke-linecap="round"/>
<path d="M15.8108 37.7607H21.0783" stroke="black" stroke-width="0.438961" stroke-linecap="round"/>
<path d="M35.1251 35.127V40.3945" stroke="black" stroke-width="0.438961" stroke-linecap="round"/>
<path d="M32.4913 37.7607H37.7589" stroke="black" stroke-width="0.438961" stroke-linecap="round"/>
<path d="M51.8057 35.127V40.3945" stroke="black" stroke-width="0.438961" stroke-linecap="round"/>
<path d="M49.1719 37.7607H54.4394" stroke="black" stroke-width="0.438961" stroke-linecap="round"/>
<path d="M68.4861 35.127V40.3945" stroke="black" stroke-width="0.438961" stroke-linecap="round"/>
<path d="M65.8523 37.7607H71.1198" stroke="black" stroke-width="0.438961" stroke-linecap="round"/>
<path d="M85.1666 35.127V40.3945" stroke="black" stroke-width="0.438961" stroke-linecap="round"/>
<path d="M82.5328 37.7607H87.8004" stroke="black" stroke-width="0.438961" stroke-linecap="round"/>
<path d="M101.847 35.127V40.3945" stroke="black" stroke-width="0.438961" stroke-linecap="round"/>
<path d="M99.2134 37.7607H104.481" stroke="black" stroke-width="0.438961" stroke-linecap="round"/>
<path d="M118.528 35.127V40.3945" stroke="black" stroke-width="0.438961" stroke-linecap="round"/>
<path d="M115.894 37.7607H121.161" stroke="black" stroke-width="0.438961" stroke-linecap="round"/>
<path d="M135.208 35.127V40.3945" stroke="black" stroke-width="0.438961" stroke-linecap="round"/>
<path d="M132.574 37.7607H137.842" stroke="black" stroke-width="0.438961" stroke-linecap="round"/>
<path d="M151.889 35.127V40.3945" stroke="black" stroke-width="0.438961" stroke-linecap="round"/>
<path d="M149.255 37.7607H154.522" stroke="black" stroke-width="0.438961" stroke-linecap="round"/>
<path d="M168.569 35.127V40.3945" stroke="black" stroke-width="0.438961" stroke-linecap="round"/>
<path d="M165.935 37.7607H171.203" stroke="black" stroke-width="0.438961" stroke-linecap="round"/>
</g>
<g clip-path="url(#clip3_1759_14089)">
<path d="M1.76404 52.2466V57.5141" stroke="black" stroke-width="0.438961" stroke-linecap="round"/>
<path d="M-0.869751 54.8804H4.39778" stroke="black" stroke-width="0.438961" stroke-linecap="round"/>
<path d="M18.4446 52.2466V57.5141" stroke="black" stroke-width="0.438961" stroke-linecap="round"/>
<path d="M15.8108 54.8804H21.0783" stroke="black" stroke-width="0.438961" stroke-linecap="round"/>
<path d="M35.1251 52.2466V57.5141" stroke="black" stroke-width="0.438961" stroke-linecap="round"/>
<path d="M32.4913 54.8804H37.7589" stroke="black" stroke-width="0.438961" stroke-linecap="round"/>
<path d="M51.8057 52.2466V57.5141" stroke="black" stroke-width="0.438961" stroke-linecap="round"/>
<path d="M49.1719 54.8804H54.4394" stroke="black" stroke-width="0.438961" stroke-linecap="round"/>
<path d="M68.4861 52.2466V57.5141" stroke="black" stroke-width="0.438961" stroke-linecap="round"/>
<path d="M65.8523 54.8804H71.1198" stroke="black" stroke-width="0.438961" stroke-linecap="round"/>
<path d="M85.1666 52.2466V57.5141" stroke="black" stroke-width="0.438961" stroke-linecap="round"/>
<path d="M82.5328 54.8804H87.8004" stroke="black" stroke-width="0.438961" stroke-linecap="round"/>
<path d="M101.847 52.2466V57.5141" stroke="black" stroke-width="0.438961" stroke-linecap="round"/>
<path d="M99.2134 54.8804H104.481" stroke="black" stroke-width="0.438961" stroke-linecap="round"/>
<path d="M118.528 52.2466V57.5141" stroke="black" stroke-width="0.438961" stroke-linecap="round"/>
<path d="M115.894 54.8804H121.161" stroke="black" stroke-width="0.438961" stroke-linecap="round"/>
<path d="M135.208 52.2466V57.5141" stroke="black" stroke-width="0.438961" stroke-linecap="round"/>
<path d="M132.574 54.8804H137.842" stroke="black" stroke-width="0.438961" stroke-linecap="round"/>
<path d="M151.889 52.2466V57.5141" stroke="black" stroke-width="0.438961" stroke-linecap="round"/>
<path d="M149.255 54.8804H154.522" stroke="black" stroke-width="0.438961" stroke-linecap="round"/>
<path d="M168.569 52.2466V57.5141" stroke="black" stroke-width="0.438961" stroke-linecap="round"/>
<path d="M165.935 54.8804H171.203" stroke="black" stroke-width="0.438961" stroke-linecap="round"/>
</g>
<g clip-path="url(#clip4_1759_14089)">
<path d="M1.76404 69.3662V74.6337" stroke="black" stroke-width="0.438961" stroke-linecap="round"/>
<path d="M-0.869751 72H4.39778" stroke="black" stroke-width="0.438961" stroke-linecap="round"/>
<path d="M18.4446 69.3662V74.6337" stroke="black" stroke-width="0.438961" stroke-linecap="round"/>
<path d="M15.8108 72H21.0783" stroke="black" stroke-width="0.438961" stroke-linecap="round"/>
<path d="M35.1251 69.3662V74.6337" stroke="black" stroke-width="0.438961" stroke-linecap="round"/>
<path d="M32.4913 72H37.7589" stroke="black" stroke-width="0.438961" stroke-linecap="round"/>
<path d="M51.8057 69.3662V74.6337" stroke="black" stroke-width="0.438961" stroke-linecap="round"/>
<path d="M49.1719 72H54.4394" stroke="black" stroke-width="0.438961" stroke-linecap="round"/>
<path d="M68.4861 69.3662V74.6337" stroke="black" stroke-width="0.438961" stroke-linecap="round"/>
<path d="M65.8523 72H71.1198" stroke="black" stroke-width="0.438961" stroke-linecap="round"/>
<path d="M85.1666 69.3662V74.6337" stroke="black" stroke-width="0.438961" stroke-linecap="round"/>
<path d="M82.5328 72H87.8004" stroke="black" stroke-width="0.438961" stroke-linecap="round"/>
<path d="M101.847 69.3662V74.6337" stroke="black" stroke-width="0.438961" stroke-linecap="round"/>
<path d="M99.2134 72H104.481" stroke="black" stroke-width="0.438961" stroke-linecap="round"/>
<path d="M118.528 69.3662V74.6337" stroke="black" stroke-width="0.438961" stroke-linecap="round"/>
<path d="M115.894 72H121.161" stroke="black" stroke-width="0.438961" stroke-linecap="round"/>
<path d="M135.208 69.3662V74.6337" stroke="black" stroke-width="0.438961" stroke-linecap="round"/>
<path d="M132.574 72H137.842" stroke="black" stroke-width="0.438961" stroke-linecap="round"/>
<path d="M151.889 69.3662V74.6337" stroke="black" stroke-width="0.438961" stroke-linecap="round"/>
<path d="M149.255 72H154.522" stroke="black" stroke-width="0.438961" stroke-linecap="round"/>
<path d="M168.569 69.3662V74.6337" stroke="black" stroke-width="0.438961" stroke-linecap="round"/>
<path d="M165.935 72H171.203" stroke="black" stroke-width="0.438961" stroke-linecap="round"/>
</g>
<g clip-path="url(#clip5_1759_14089)">
<path d="M1.76404 86.4854V91.7529" stroke="black" stroke-width="0.438961" stroke-linecap="round"/>
<path d="M-0.869751 89.1191H4.39778" stroke="black" stroke-width="0.438961" stroke-linecap="round"/>
<path d="M18.4446 86.4854V91.7529" stroke="black" stroke-width="0.438961" stroke-linecap="round"/>
<path d="M15.8108 89.1191H21.0783" stroke="black" stroke-width="0.438961" stroke-linecap="round"/>
<path d="M35.1251 86.4854V91.7529" stroke="black" stroke-width="0.438961" stroke-linecap="round"/>
<path d="M32.4913 89.1191H37.7589" stroke="black" stroke-width="0.438961" stroke-linecap="round"/>
<path d="M51.8057 86.4854V91.7529" stroke="black" stroke-width="0.438961" stroke-linecap="round"/>
<path d="M49.1719 89.1191H54.4394" stroke="black" stroke-width="0.438961" stroke-linecap="round"/>
<path d="M68.4861 86.4854V91.7529" stroke="black" stroke-width="0.438961" stroke-linecap="round"/>
<path d="M65.8523 89.1191H71.1198" stroke="black" stroke-width="0.438961" stroke-linecap="round"/>
<path d="M85.1666 86.4854V91.7529" stroke="black" stroke-width="0.438961" stroke-linecap="round"/>
<path d="M82.5328 89.1191H87.8004" stroke="black" stroke-width="0.438961" stroke-linecap="round"/>
<path d="M101.847 86.4854V91.7529" stroke="black" stroke-width="0.438961" stroke-linecap="round"/>
<path d="M99.2134 89.1191H104.481" stroke="black" stroke-width="0.438961" stroke-linecap="round"/>
<path d="M118.528 86.4854V91.7529" stroke="black" stroke-width="0.438961" stroke-linecap="round"/>
<path d="M115.894 89.1191H121.161" stroke="black" stroke-width="0.438961" stroke-linecap="round"/>
<path d="M135.208 86.4854V91.7529" stroke="black" stroke-width="0.438961" stroke-linecap="round"/>
<path d="M132.574 89.1191H137.842" stroke="black" stroke-width="0.438961" stroke-linecap="round"/>
<path d="M151.889 86.4854V91.7529" stroke="black" stroke-width="0.438961" stroke-linecap="round"/>
<path d="M149.255 89.1191H154.522" stroke="black" stroke-width="0.438961" stroke-linecap="round"/>
<path d="M168.569 86.4854V91.7529" stroke="black" stroke-width="0.438961" stroke-linecap="round"/>
<path d="M165.935 89.1191H171.203" stroke="black" stroke-width="0.438961" stroke-linecap="round"/>
</g>
<g clip-path="url(#clip6_1759_14089)">
<path d="M1.76404 103.605V108.873" stroke="black" stroke-width="0.438961" stroke-linecap="round"/>
<path d="M-0.869751 106.239H4.39778" stroke="black" stroke-width="0.438961" stroke-linecap="round"/>
<path d="M18.4446 103.605V108.873" stroke="black" stroke-width="0.438961" stroke-linecap="round"/>
<path d="M15.8108 106.239H21.0783" stroke="black" stroke-width="0.438961" stroke-linecap="round"/>
<path d="M35.1251 103.605V108.873" stroke="black" stroke-width="0.438961" stroke-linecap="round"/>
<path d="M32.4913 106.239H37.7589" stroke="black" stroke-width="0.438961" stroke-linecap="round"/>
<path d="M51.8057 103.605V108.873" stroke="black" stroke-width="0.438961" stroke-linecap="round"/>
<path d="M49.1719 106.239H54.4394" stroke="black" stroke-width="0.438961" stroke-linecap="round"/>
<path d="M68.4861 103.605V108.873" stroke="black" stroke-width="0.438961" stroke-linecap="round"/>
<path d="M65.8523 106.239H71.1198" stroke="black" stroke-width="0.438961" stroke-linecap="round"/>
<path d="M85.1666 103.605V108.873" stroke="black" stroke-width="0.438961" stroke-linecap="round"/>
<path d="M82.5328 106.239H87.8004" stroke="black" stroke-width="0.438961" stroke-linecap="round"/>
<path d="M101.847 103.605V108.873" stroke="black" stroke-width="0.438961" stroke-linecap="round"/>
<path d="M99.2134 106.239H104.481" stroke="black" stroke-width="0.438961" stroke-linecap="round"/>
<path d="M118.528 103.605V108.873" stroke="black" stroke-width="0.438961" stroke-linecap="round"/>
<path d="M115.894 106.239H121.161" stroke="black" stroke-width="0.438961" stroke-linecap="round"/>
<path d="M135.208 103.605V108.873" stroke="black" stroke-width="0.438961" stroke-linecap="round"/>
<path d="M132.574 106.239H137.842" stroke="black" stroke-width="0.438961" stroke-linecap="round"/>
<path d="M151.889 103.605V108.873" stroke="black" stroke-width="0.438961" stroke-linecap="round"/>
<path d="M149.255 106.239H154.522" stroke="black" stroke-width="0.438961" stroke-linecap="round"/>
<path d="M168.569 103.605V108.873" stroke="black" stroke-width="0.438961" stroke-linecap="round"/>
<path d="M165.935 106.239H171.203" stroke="black" stroke-width="0.438961" stroke-linecap="round"/>
</g>
<g clip-path="url(#clip7_1759_14089)">
<path d="M1.76404 120.725V125.992" stroke="black" stroke-width="0.438961" stroke-linecap="round"/>
<path d="M-0.869751 123.358H4.39778" stroke="black" stroke-width="0.438961" stroke-linecap="round"/>
<path d="M18.4446 120.725V125.992" stroke="black" stroke-width="0.438961" stroke-linecap="round"/>
<path d="M15.8108 123.358H21.0783" stroke="black" stroke-width="0.438961" stroke-linecap="round"/>
<path d="M35.1251 120.725V125.992" stroke="black" stroke-width="0.438961" stroke-linecap="round"/>
<path d="M32.4913 123.358H37.7589" stroke="black" stroke-width="0.438961" stroke-linecap="round"/>
<path d="M51.8057 120.725V125.992" stroke="black" stroke-width="0.438961" stroke-linecap="round"/>
<path d="M49.1719 123.358H54.4394" stroke="black" stroke-width="0.438961" stroke-linecap="round"/>
<path d="M68.4861 120.725V125.992" stroke="black" stroke-width="0.438961" stroke-linecap="round"/>
<path d="M65.8523 123.358H71.1198" stroke="black" stroke-width="0.438961" stroke-linecap="round"/>
<path d="M85.1666 120.725V125.992" stroke="black" stroke-width="0.438961" stroke-linecap="round"/>
<path d="M82.5328 123.358H87.8004" stroke="black" stroke-width="0.438961" stroke-linecap="round"/>
<path d="M101.847 120.725V125.992" stroke="black" stroke-width="0.438961" stroke-linecap="round"/>
<path d="M99.2134 123.358H104.481" stroke="black" stroke-width="0.438961" stroke-linecap="round"/>
<path d="M118.528 120.725V125.992" stroke="black" stroke-width="0.438961" stroke-linecap="round"/>
<path d="M115.894 123.358H121.161" stroke="black" stroke-width="0.438961" stroke-linecap="round"/>
<path d="M135.208 120.725V125.992" stroke="black" stroke-width="0.438961" stroke-linecap="round"/>
<path d="M132.574 123.358H137.842" stroke="black" stroke-width="0.438961" stroke-linecap="round"/>
<path d="M151.889 120.725V125.992" stroke="black" stroke-width="0.438961" stroke-linecap="round"/>
<path d="M149.255 123.358H154.522" stroke="black" stroke-width="0.438961" stroke-linecap="round"/>
<path d="M168.569 120.725V125.992" stroke="black" stroke-width="0.438961" stroke-linecap="round"/>
<path d="M165.935 123.358H171.203" stroke="black" stroke-width="0.438961" stroke-linecap="round"/>
</g>
<g clip-path="url(#clip8_1759_14089)">
<path d="M1.76404 137.844V143.112" stroke="black" stroke-width="0.438961" stroke-linecap="round"/>
<path d="M-0.869751 140.478H4.39778" stroke="black" stroke-width="0.438961" stroke-linecap="round"/>
<path d="M18.4446 137.844V143.112" stroke="black" stroke-width="0.438961" stroke-linecap="round"/>
<path d="M15.8108 140.478H21.0783" stroke="black" stroke-width="0.438961" stroke-linecap="round"/>
<path d="M35.1251 137.844V143.112" stroke="black" stroke-width="0.438961" stroke-linecap="round"/>
<path d="M32.4913 140.478H37.7589" stroke="black" stroke-width="0.438961" stroke-linecap="round"/>
<path d="M51.8057 137.844V143.112" stroke="black" stroke-width="0.438961" stroke-linecap="round"/>
<path d="M49.1719 140.478H54.4394" stroke="black" stroke-width="0.438961" stroke-linecap="round"/>
<path d="M68.4861 137.844V143.112" stroke="black" stroke-width="0.438961" stroke-linecap="round"/>
<path d="M65.8523 140.478H71.1198" stroke="black" stroke-width="0.438961" stroke-linecap="round"/>
<path d="M85.1666 137.844V143.112" stroke="black" stroke-width="0.438961" stroke-linecap="round"/>
<path d="M82.5328 140.478H87.8004" stroke="black" stroke-width="0.438961" stroke-linecap="round"/>
<path d="M101.847 137.844V143.112" stroke="black" stroke-width="0.438961" stroke-linecap="round"/>
<path d="M99.2134 140.478H104.481" stroke="black" stroke-width="0.438961" stroke-linecap="round"/>
<path d="M118.528 137.844V143.112" stroke="black" stroke-width="0.438961" stroke-linecap="round"/>
<path d="M115.894 140.478H121.161" stroke="black" stroke-width="0.438961" stroke-linecap="round"/>
<path d="M135.208 137.844V143.112" stroke="black" stroke-width="0.438961" stroke-linecap="round"/>
<path d="M132.574 140.478H137.842" stroke="black" stroke-width="0.438961" stroke-linecap="round"/>
<path d="M151.889 137.844V143.112" stroke="black" stroke-width="0.438961" stroke-linecap="round"/>
<path d="M149.255 140.478H154.522" stroke="black" stroke-width="0.438961" stroke-linecap="round"/>
<path d="M168.569 137.844V143.112" stroke="black" stroke-width="0.438961" stroke-linecap="round"/>
<path d="M165.935 140.478H171.203" stroke="black" stroke-width="0.438961" stroke-linecap="round"/>
</g>
<defs>
<clipPath id="clip0_1759_14089">
<rect width="169" height="7.02338" fill="white" transform="translate(0.666626 0.0102539)"/>
</clipPath>
<clipPath id="clip1_1759_14089">
<rect width="169" height="7.02338" fill="white" transform="translate(0.666626 17.1299)"/>
</clipPath>
<clipPath id="clip2_1759_14089">
<rect width="169" height="7.02338" fill="white" transform="translate(0.666626 34.249)"/>
</clipPath>
<clipPath id="clip3_1759_14089">
<rect width="169" height="7.02338" fill="white" transform="translate(0.666626 51.3687)"/>
</clipPath>
<clipPath id="clip4_1759_14089">
<rect width="169" height="7.02338" fill="white" transform="translate(0.666626 68.4883)"/>
</clipPath>
<clipPath id="clip5_1759_14089">
<rect width="169" height="7.02338" fill="white" transform="translate(0.666626 85.6074)"/>
</clipPath>
<clipPath id="clip6_1759_14089">
<rect width="169" height="7.02338" fill="white" transform="translate(0.666626 102.727)"/>
</clipPath>
<clipPath id="clip7_1759_14089">
<rect width="169" height="7.02338" fill="white" transform="translate(0.666626 119.847)"/>
</clipPath>
<clipPath id="clip8_1759_14089">
<rect width="169" height="7.02338" fill="white" transform="translate(0.666626 136.966)"/>
</clipPath>
</defs>
</svg>
