<svg width="32" height="32" viewBox="0 0 32 32" fill="none" xmlns="http://www.w3.org/2000/svg">
<path opacity="0.4" d="M8.97305 26.2659C10.0664 25.0925 11.733 25.1859 12.693 26.4659L14.0397 28.2659C15.1197 29.6925 16.8664 29.6925 17.9464 28.2659L19.293 26.4659C20.253 25.1859 21.9197 25.0925 23.013 26.2659C25.3864 28.7992 27.3197 27.9592 27.3197 24.4125V9.38586C27.333 4.01253 26.0797 2.66586 21.0397 2.66586H10.9597C5.91972 2.66586 4.66638 4.01253 4.66638 9.38586V24.3992C4.66638 27.9592 6.61305 28.7859 8.97305 26.2659Z" fill="#8433AA"/>
<path d="M21.3332 10.3326H10.6665C10.1198 10.3326 9.6665 9.87922 9.6665 9.33255C9.6665 8.78589 10.1198 8.33255 10.6665 8.33255H21.3332C21.8798 8.33255 22.3332 8.78589 22.3332 9.33255C22.3332 9.87922 21.8798 10.3326 21.3332 10.3326Z" fill="#8433AA"/>
<path d="M19.9994 15.6666H11.9994C11.4527 15.6666 10.9994 15.2133 10.9994 14.6666C10.9994 14.1199 11.4527 13.6666 11.9994 13.6666H19.9994C20.5461 13.6666 20.9994 14.1199 20.9994 14.6666C20.9994 15.2133 20.5461 15.6666 19.9994 15.6666Z" fill="#8433AA"/>
</svg>
