<svg width="33" height="32" viewBox="0 0 33 32" fill="none" xmlns="http://www.w3.org/2000/svg">
<path opacity="0.4" d="M11.41 29.3325H22.0766C25.7566 29.3325 28.7433 26.3459 28.7433 22.6659V9.33253C28.7433 5.65253 25.7566 2.66586 22.0766 2.66586H11.41C7.72995 2.66586 4.74329 5.65253 4.74329 9.33253V22.6659C4.74329 26.3459 7.72995 29.3325 11.41 29.3325Z" fill="#8433AA"/>
<path d="M20.7435 7.61263H12.7435C11.3701 7.61263 10.2368 8.73263 10.2368 10.1193V11.4526C10.2368 12.826 11.3568 13.9593 12.7435 13.9593H20.7435C22.1168 13.9593 23.2501 12.8393 23.2501 11.4526V10.1193C23.2501 8.73263 22.1302 7.61263 20.7435 7.61263Z" fill="#8433AA"/>
<path d="M11.6235 19.8916C11.4369 19.8916 11.2635 19.8516 11.1035 19.7849C10.9435 19.7183 10.7969 19.6249 10.6769 19.5049C10.4235 19.2516 10.2769 18.9183 10.2769 18.5583C10.2769 18.3849 10.3169 18.2116 10.3835 18.0516C10.4502 17.8783 10.5435 17.7449 10.6769 17.6116C10.9835 17.3049 11.4502 17.1583 11.8769 17.2516C11.9569 17.2649 12.0502 17.2916 12.1302 17.3316C12.2102 17.3583 12.2902 17.3983 12.3569 17.4516C12.4369 17.4916 12.5035 17.5583 12.5569 17.6116C12.6769 17.7449 12.7835 17.8783 12.8502 18.0516C12.9169 18.2116 12.9435 18.3849 12.9435 18.5583C12.9435 18.9183 12.8102 19.2516 12.5569 19.5049C12.3035 19.7583 11.9702 19.8916 11.6235 19.8916Z" fill="#8433AA"/>
<path d="M16.9432 19.8933C16.5965 19.8933 16.2632 19.7599 16.0099 19.5066C15.7565 19.2533 15.6099 18.9199 15.6099 18.5599C15.6099 18.2133 15.7565 17.8666 16.0099 17.6133C16.5032 17.1199 17.3965 17.1199 17.8899 17.6133C18.0099 17.7466 18.1165 17.8799 18.1832 18.0533C18.2499 18.2133 18.2765 18.3866 18.2765 18.5599C18.2765 18.9199 18.1432 19.2533 17.8899 19.5066C17.6365 19.7599 17.3032 19.8933 16.9432 19.8933Z" fill="#8433AA"/>
<path d="M22.2763 19.8933C21.9297 19.8933 21.5963 19.7599 21.343 19.5066C21.0897 19.2533 20.943 18.9199 20.943 18.5599C20.943 18.2133 21.0897 17.8666 21.343 17.6133C21.8363 17.1199 22.7297 17.1199 23.223 17.6133C23.4763 17.8666 23.623 18.2133 23.623 18.5599C23.623 18.7333 23.583 18.9066 23.5163 19.0666C23.4497 19.2266 23.3563 19.3733 23.223 19.5066C22.9697 19.7599 22.6363 19.8933 22.2763 19.8933Z" fill="#8433AA"/>
<path d="M11.6235 25.2261C11.2635 25.2261 10.9302 25.0928 10.6769 24.8394C10.4235 24.5861 10.2769 24.2528 10.2769 23.8928C10.2769 23.5461 10.4235 23.1994 10.6769 22.9461C10.7969 22.8261 10.9435 22.7328 11.1035 22.6661C11.4369 22.5328 11.7969 22.5328 12.1302 22.6661C12.2102 22.6928 12.2902 22.7328 12.3569 22.7861C12.4369 22.8261 12.5035 22.8928 12.5569 22.9461C12.8102 23.1994 12.9569 23.5461 12.9569 23.8928C12.9569 24.2528 12.8102 24.5861 12.5569 24.8394C12.3035 25.0928 11.9702 25.2261 11.6235 25.2261Z" fill="#8433AA"/>
<path d="M16.9432 25.2263C16.5965 25.2263 16.2632 25.093 16.0099 24.8397C15.7565 24.5863 15.6099 24.253 15.6099 23.893C15.6099 23.7997 15.6232 23.7197 15.6365 23.6263C15.6632 23.5463 15.6899 23.4663 15.7165 23.3863C15.7565 23.3063 15.7965 23.2263 15.8365 23.1463C15.8899 23.0797 15.9432 23.013 16.0099 22.9463C16.1299 22.8263 16.2765 22.733 16.4365 22.6663C16.9299 22.4663 17.5165 22.573 17.8899 22.9463C18.1432 23.1997 18.2765 23.5463 18.2765 23.893C18.2765 24.253 18.1432 24.5863 17.8899 24.8397C17.7699 24.9597 17.6232 25.053 17.4632 25.1197C17.3032 25.1863 17.1299 25.2263 16.9432 25.2263Z" fill="#8433AA"/>
<path d="M22.2763 25.2263C22.103 25.2263 21.9296 25.1863 21.7696 25.1197C21.6096 25.053 21.463 24.9597 21.343 24.8397C21.0896 24.5863 20.9563 24.253 20.9563 23.893C20.9563 23.5463 21.0896 23.1997 21.343 22.9463C21.703 22.573 22.303 22.4663 22.7963 22.6663C22.9563 22.733 23.103 22.8263 23.223 22.9463C23.4763 23.1997 23.6096 23.5463 23.6096 23.893C23.6096 24.253 23.4763 24.5863 23.223 24.8397C22.9696 25.093 22.6363 25.2263 22.2763 25.2263Z" fill="#8433AA"/>
</svg>
