<svg width="33" height="32" viewBox="0 0 33 32" fill="none" xmlns="http://www.w3.org/2000/svg">
<path opacity="0.4" d="M29.8461 11.9985V21.9452C29.8461 24.9985 27.3661 27.4652 24.3128 27.4652H8.71278C5.65944 27.4652 3.17944 24.9985 3.17944 21.9452V11.9985H29.8461Z" fill="#8433AA"/>
<path d="M29.8461 10.053V11.9997H3.17944V10.053C3.17944 6.99967 5.65944 4.533 8.71278 4.533H24.3128C27.3661 4.533 29.8461 6.99967 29.8461 10.053Z" fill="#8433AA"/>
<path d="M11.1797 22.9995H8.51306C7.96639 22.9995 7.51306 22.5461 7.51306 21.9995C7.51306 21.4528 7.96639 20.9995 8.51306 20.9995H11.1797C11.7264 20.9995 12.1797 21.4528 12.1797 21.9995C12.1797 22.5461 11.7264 22.9995 11.1797 22.9995Z" fill="#8433AA"/>
<path d="M19.846 22.9995H14.5127C13.966 22.9995 13.5127 22.5461 13.5127 21.9995C13.5127 21.4528 13.966 20.9995 14.5127 20.9995H19.846C20.3927 20.9995 20.846 21.4528 20.846 21.9995C20.846 22.5461 20.3927 22.9995 19.846 22.9995Z" fill="#8433AA"/>
</svg>
