<svg width="33" height="32" viewBox="0 0 33 32" fill="none" xmlns="http://www.w3.org/2000/svg">
<path opacity="0.4" d="M20.678 30.3325C20.318 30.3325 19.9847 30.1325 19.8114 29.8258C19.638 29.5192 19.638 29.1325 19.8247 28.8258L21.2247 26.4925C21.5047 26.0125 22.118 25.8658 22.598 26.1458C23.078 26.4258 23.2247 27.0392 22.9447 27.5192L22.5847 28.1192C26.2647 27.2526 29.0247 23.9458 29.0247 19.9992C29.0247 19.4525 29.478 18.9992 30.0247 18.9992C30.5713 18.9992 31.0247 19.4525 31.0247 19.9992C31.0113 25.6925 26.3714 30.3325 20.678 30.3325Z" fill="#8433AA"/>
<path opacity="0.4" d="M3.34497 12.9993C2.7983 12.9993 2.34497 12.546 2.34497 11.9993C2.34497 6.30597 6.98497 1.66597 12.6783 1.66597C13.0383 1.66597 13.3716 1.86598 13.545 2.17264C13.7183 2.47931 13.7183 2.86598 13.5316 3.17264L12.1316 5.50598C11.8516 5.98598 11.2383 6.13266 10.7583 5.85266C10.2783 5.57266 10.1316 4.95928 10.4116 4.47928L10.7716 3.87927C7.09165 4.74593 4.33164 8.05264 4.33164 11.9993C4.34498 12.546 3.89164 12.9993 3.34497 12.9993Z" fill="#8433AA"/>
<path d="M14.9047 18.465L10.7181 16.2117C10.2781 15.9717 9.74475 15.9717 9.30475 16.2117L5.11808 18.465C4.81142 18.625 4.62476 18.9584 4.62476 19.3184C4.62476 19.6784 4.81142 20.0117 5.11808 20.1717L9.30475 22.425C9.53141 22.545 9.77141 22.5984 10.0114 22.5984C10.2514 22.5984 10.4914 22.545 10.7181 22.425L14.9047 20.1717C15.2114 20.0117 15.3981 19.6784 15.3981 19.3184C15.3981 18.9584 15.1981 18.6383 14.9047 18.465Z" fill="#8433AA"/>
<path d="M8.61129 23.2127L4.71796 21.2661C4.42462 21.1194 4.07796 21.1327 3.78463 21.3061C3.50463 21.4794 3.3313 21.7861 3.3313 22.1195V25.7994C3.3313 26.4394 3.67795 27.0127 4.25128 27.2927L8.14463 29.2394C8.27797 29.3061 8.42462 29.3461 8.57129 29.3461C8.74462 29.3461 8.91796 29.2928 9.07796 29.1994C9.35796 29.0261 9.53129 28.7194 9.53129 28.3861V24.7061C9.54462 24.0661 9.18462 23.4927 8.61129 23.2127Z" fill="#8433AA"/>
<path d="M16.2247 21.3061C15.9447 21.1327 15.598 21.1194 15.2914 21.2661L11.398 23.2127C10.8247 23.4927 10.478 24.0661 10.478 24.7061V28.3861C10.478 28.7194 10.6514 29.0261 10.9314 29.1994C11.0914 29.2928 11.2647 29.3461 11.438 29.3461C11.5847 29.3461 11.7314 29.3061 11.8647 29.2394L15.758 27.2927C16.3313 27.0127 16.678 26.4394 16.678 25.7994V22.1195C16.678 21.7861 16.5047 21.4794 16.2247 21.3061Z" fill="#8433AA"/>
<path d="M28.2384 5.10538L24.0517 2.85204C23.6117 2.61204 23.0784 2.61204 22.6384 2.85204L18.4517 5.10538C18.145 5.26538 17.9584 5.59865 17.9584 5.95865C17.9584 6.31865 18.145 6.652 18.4517 6.812L22.6384 9.06534C22.865 9.18534 23.105 9.23868 23.345 9.23868C23.585 9.23868 23.825 9.18534 24.0517 9.06534L28.2384 6.812C28.545 6.652 28.7317 6.31865 28.7317 5.95865C28.7317 5.58531 28.5317 5.26538 28.2384 5.10538Z" fill="#8433AA"/>
<path d="M21.9453 9.83899L18.0519 7.89229C17.7586 7.74562 17.4119 7.759 17.1186 7.93233C16.8386 8.10566 16.6653 8.41231 16.6653 8.74564V12.4257C16.6653 13.0657 17.0119 13.639 17.5853 13.919L21.4786 15.8657C21.612 15.9323 21.7586 15.9723 21.9053 15.9723C22.0786 15.9723 22.2519 15.919 22.4119 15.8256C22.6919 15.6523 22.8653 15.3457 22.8653 15.0123V11.3323C22.8786 10.6923 22.5186 10.119 21.9453 9.83899Z" fill="#8433AA"/>
<path d="M29.5582 7.93233C29.2782 7.759 28.9315 7.74562 28.6249 7.89229L24.7315 9.83899C24.1582 10.119 23.8115 10.6923 23.8115 11.3323V15.0123C23.8115 15.3457 23.9849 15.6523 24.2649 15.8256C24.4249 15.919 24.5982 15.9723 24.7715 15.9723C24.9182 15.9723 25.0648 15.9323 25.1982 15.8657L29.0915 13.919C29.6648 13.639 30.0115 13.0657 30.0115 12.4257V8.74564C30.0115 8.41231 29.8382 8.10566 29.5582 7.93233Z" fill="#8433AA"/>
</svg>
