<svg width="33" height="32" viewBox="0 0 33 32" fill="none" xmlns="http://www.w3.org/2000/svg">
<path d="M20.213 29.3325C19.6663 29.3325 19.213 28.8792 19.213 28.3325V3.66586C19.213 3.11919 19.6663 2.66586 20.213 2.66586C20.7597 2.66586 21.213 3.11919 21.213 3.66586V28.3325C21.213 28.8792 20.7597 29.3325 20.213 29.3325Z" fill="#8433AA"/>
<path opacity="0.4" d="M8.8796 26.6657H16.8796V5.3324H8.8796C5.93293 5.3324 3.54626 7.71906 3.54626 10.6657V21.3324C3.54626 24.2791 5.93293 26.6657 8.8796 26.6657Z" fill="#8433AA"/>
<path opacity="0.4" d="M24.2129 26.6657H20.2129V5.3324H24.2129C27.1596 5.3324 29.5462 7.71906 29.5462 10.6657V21.3324C29.5462 24.2791 27.1596 26.6657 24.2129 26.6657Z" fill="#8433AA"/>
<path d="M7.87948 17.3329C7.70614 17.3329 7.53281 17.2929 7.37281 17.2262C7.21281 17.1595 7.06614 17.0662 6.93281 16.9462C6.81281 16.8129 6.71948 16.6662 6.63948 16.5062C6.57281 16.3462 6.54614 16.1729 6.54614 15.9995C6.54614 15.6529 6.69281 15.3062 6.93281 15.0529C6.99948 14.9995 7.06614 14.9462 7.13281 14.8929C7.21281 14.8395 7.29281 14.7995 7.37281 14.7729C7.45281 14.7329 7.53281 14.7062 7.61281 14.6929C8.06614 14.5995 8.51948 14.7462 8.82614 15.0529C9.06614 15.3062 9.21281 15.6529 9.21281 15.9995C9.21281 16.1729 9.17281 16.3462 9.10614 16.5062C9.03948 16.6662 8.94614 16.8129 8.82614 16.9462C8.69281 17.0662 8.54614 17.1595 8.38614 17.2262C8.22614 17.2929 8.05281 17.3329 7.87948 17.3329Z" fill="#8433AA"/>
<path d="M12.5466 17.3326C12.3733 17.3326 12.1999 17.2926 12.0399 17.2259C11.8799 17.1593 11.7333 17.0659 11.5999 16.9459C11.3466 16.6926 11.2133 16.3593 11.2133 15.9993C11.2133 15.8259 11.2533 15.6526 11.3199 15.4926C11.3866 15.3193 11.4799 15.1859 11.5999 15.0526C12.0933 14.5593 12.9866 14.5593 13.4933 15.0526C13.7333 15.3059 13.8799 15.6526 13.8799 15.9993C13.8799 16.1726 13.8399 16.3459 13.7733 16.5059C13.7066 16.6659 13.6133 16.8126 13.4933 16.9459C13.3599 17.0659 13.2133 17.1593 13.0533 17.2259C12.8933 17.2926 12.7199 17.3326 12.5466 17.3326Z" fill="#8433AA"/>
</svg>
