<svg width="33" height="32" viewBox="0 0 33 32" fill="none" xmlns="http://www.w3.org/2000/svg">
<path d="M25.0675 15.3726C24.3075 15.1726 23.4142 15.066 22.3475 15.066C20.8675 15.066 20.3209 15.426 19.5609 15.9993C19.5209 16.026 19.4809 16.066 19.4409 16.106L18.1742 17.4526C17.1075 18.5726 15.1875 18.586 14.1209 17.4393L12.8542 16.106C12.8142 16.066 12.7742 16.026 12.7342 15.9993C11.9742 15.426 11.4275 15.066 9.94753 15.066C8.88087 15.066 7.98753 15.1726 7.22753 15.3726C4.0542 16.226 4.0542 18.746 4.0542 20.9593V22.1993C4.0542 25.546 4.0542 29.3326 11.1875 29.3326H21.1075C25.8409 29.3326 28.2409 26.9326 28.2409 22.1993V20.9593C28.2409 18.746 28.2409 16.226 25.0675 15.3726ZM19.2542 24.5326H13.0409C12.5342 24.5326 12.1209 24.1193 12.1209 23.5993C12.1209 23.0793 12.5342 22.666 13.0409 22.666H19.2542C19.7609 22.666 20.1742 23.0793 20.1742 23.5993C20.1742 24.1193 19.7609 24.5326 19.2542 24.5326Z" fill="#8433AA"/>
<path opacity="0.4" d="M19.868 2.66586H12.428C6.53467 2.66586 6.53467 5.79919 6.53467 8.55919V16.2792C6.53467 16.5725 6.668 16.8392 6.89467 17.0125C7.12133 17.1859 7.428 17.2525 7.708 17.1725C8.308 17.0125 9.05467 16.9325 9.948 16.9325C10.8413 16.9325 11.028 17.0392 11.5613 17.4392L12.7747 18.7192C13.6413 19.6525 14.8813 20.1859 16.1613 20.1859C17.4413 20.1859 18.668 19.6525 19.548 18.7192L20.7613 17.4392C21.2947 17.0392 21.4813 16.9325 22.3747 16.9325C23.268 16.9325 24.0147 17.0125 24.6147 17.1725C24.8947 17.2525 25.188 17.1859 25.428 17.0125C25.6547 16.8392 25.788 16.5592 25.788 16.2792V8.55919C25.7613 5.79919 25.7613 2.66586 19.868 2.66586Z" fill="#8433AA"/>
<path opacity="0.4" d="M20.1744 23.5989C20.1744 24.1189 19.7611 24.5323 19.2544 24.5323H13.0411C12.5344 24.5323 12.1211 24.1189 12.1211 23.5989C12.1211 23.0789 12.5344 22.6656 13.0411 22.6656H19.2544C19.7611 22.6656 20.1744 23.0789 20.1744 23.5989Z" fill="#8433AA"/>
</svg>
