<svg width="33" height="32" viewBox="0 0 33 32" fill="none" xmlns="http://www.w3.org/2000/svg">
<path opacity="0.4" d="M21.717 2.66562H10.5437C5.69033 2.66562 2.797 5.55895 2.797 10.4123V21.5723C2.797 26.4389 5.69033 29.3323 10.5437 29.3323H21.7037C26.557 29.3323 29.4503 26.4389 29.4503 21.5856V10.4123C29.4637 5.55895 26.5703 2.66562 21.717 2.66562Z" fill="#8433AA"/>
<path d="M9.30347 25.1993C8.7568 25.1993 8.30347 24.7459 8.30347 24.1993V21.4393C8.30347 20.8926 8.7568 20.4393 9.30347 20.4393C9.85013 20.4393 10.3035 20.8926 10.3035 21.4393V24.1993C10.3035 24.7593 9.85013 25.1993 9.30347 25.1993Z" fill="#8433AA"/>
<path d="M16.1305 25.1992C15.5838 25.1992 15.1305 24.7459 15.1305 24.1992V18.6659C15.1305 18.1192 15.5838 17.6659 16.1305 17.6659C16.6772 17.6659 17.1305 18.1192 17.1305 18.6659V24.1992C17.1305 24.7592 16.6772 25.1992 16.1305 25.1992Z" fill="#8433AA"/>
<path d="M22.957 25.1991C22.4104 25.1991 21.957 24.7457 21.957 24.1991V15.9057C21.957 15.3591 22.4104 14.9057 22.957 14.9057C23.5037 14.9057 23.957 15.3591 23.957 15.9057V24.1991C23.957 24.7591 23.517 25.1991 22.957 25.1991Z" fill="#8433AA"/>
<path d="M23.9571 7.75882C23.9571 7.69216 23.9304 7.61215 23.9171 7.54549C23.9038 7.49215 23.8904 7.42549 23.8771 7.37216C23.8504 7.31882 23.8104 7.27882 23.7838 7.22549C23.7438 7.17215 23.7038 7.10549 23.6504 7.06549C23.6371 7.05216 23.6371 7.03882 23.6238 7.03882C23.5838 7.01216 23.5438 6.99882 23.5038 6.97215C23.4504 6.93215 23.3838 6.89216 23.3171 6.86549C23.2504 6.83882 23.1838 6.83882 23.1171 6.82549C23.0638 6.81215 23.0238 6.79882 22.9704 6.79882H19.0638C18.5171 6.79882 18.0638 7.25215 18.0638 7.79882C18.0638 8.34549 18.5171 8.79882 19.0638 8.79882H20.7304C17.5571 12.1322 13.5571 14.4788 9.06376 15.6122C8.53043 15.7455 8.19709 16.2922 8.33043 16.8255C8.43709 17.2788 8.85043 17.5855 9.30376 17.5855C9.38376 17.5855 9.46376 17.5722 9.54376 17.5588C14.3038 16.3722 18.5571 13.9055 21.9571 10.4122V11.7055C21.9571 12.2522 22.4104 12.7055 22.9571 12.7055C23.5038 12.7055 23.9571 12.2522 23.9571 11.7055V7.79882C23.9571 7.78549 23.9571 7.77216 23.9571 7.75882Z" fill="#8433AA"/>
</svg>
