<svg width="33" height="32" viewBox="0 0 33 32" fill="none" xmlns="http://www.w3.org/2000/svg">
<path opacity="0.4" d="M21.991 2.66586H10.831C5.97768 2.66586 3.08435 5.55919 3.08435 10.4125V21.5725C3.08435 26.4258 5.97768 29.3192 10.831 29.3192H21.991C26.8443 29.3192 29.7377 26.4258 29.7377 21.5725V10.4125C29.7377 5.55919 26.8443 2.66586 21.991 2.66586Z" fill="#8433AA"/>
<path d="M13.8841 14.867H10.3508C9.51079 14.867 8.83081 15.5469 8.83081 16.3869V23.2136H13.8841V14.867V14.867Z" fill="#8433AA"/>
<path opacity="0.4" d="M17.4175 8.79983H15.3908C14.5508 8.79983 13.8708 9.47985 13.8708 10.3199V23.1999H18.9242V10.3199C18.9242 9.47985 18.2575 8.79983 17.4175 8.79983Z" fill="#8433AA"/>
<path d="M22.4706 17.1331H18.9373V23.1998H23.9906V18.6531C23.9773 17.8131 23.2972 17.1331 22.4706 17.1331Z" fill="#8433AA"/>
</svg>
