<svg width="33" height="32" viewBox="0 0 33 32" fill="none" xmlns="http://www.w3.org/2000/svg">
<path d="M30.2855 7.9993V11.226C30.2855 13.3326 28.9522 14.666 26.8455 14.666H22.2855V5.34597C22.2855 3.86597 23.4989 2.65264 24.9789 2.66597C26.4322 2.6793 27.7655 3.26597 28.7255 4.22597C29.6855 5.1993 30.2855 6.53264 30.2855 7.9993Z" fill="#8433AA"/>
<path opacity="0.4" d="M3.61853 9.33253V27.9992C3.61853 29.1059 4.87186 29.7325 5.75186 29.0659L8.03186 27.3592C8.5652 26.9592 9.31186 27.0125 9.79186 27.4925L12.0052 29.7192C12.5252 30.2392 13.3785 30.2392 13.8985 29.7192L16.1385 27.4792C16.6052 27.0125 17.3519 26.9592 17.8719 27.3592L20.1519 29.0659C21.0319 29.7192 22.2852 29.0925 22.2852 27.9992V5.33253C22.2852 3.86586 23.4852 2.66586 24.9519 2.66586H10.2852H8.95186C4.95186 2.66586 3.61853 5.05253 3.61853 7.99919V9.33253Z" fill="#8433AA"/>
<path d="M16.9524 16.3467H12.9524C12.4057 16.3467 11.9524 16.8 11.9524 17.3467C11.9524 17.8934 12.4057 18.3467 12.9524 18.3467H16.9524C17.4991 18.3467 17.9524 17.8934 17.9524 17.3467C17.9524 16.8 17.4991 16.3467 16.9524 16.3467Z" fill="#8433AA"/>
<path d="M12.9524 13.0127H16.9524C17.4991 13.0127 17.9524 12.5593 17.9524 12.0127C17.9524 11.466 17.4991 11.0127 16.9524 11.0127H12.9524C12.4057 11.0127 11.9524 11.466 11.9524 12.0127C11.9524 12.5593 12.4057 13.0127 12.9524 13.0127Z" fill="#8433AA"/>
<path d="M8.91195 10.6789C8.16528 10.6789 7.57861 11.2789 7.57861 12.0122C7.57861 12.7456 8.17861 13.3456 8.91195 13.3456C9.64528 13.3456 10.2453 12.7456 10.2453 12.0122C10.2453 11.2789 9.64528 10.6789 8.91195 10.6789Z" fill="#8433AA"/>
<path d="M8.91195 16.0126C8.16528 16.0126 7.57861 16.6126 7.57861 17.3459C7.57861 18.0793 8.17861 18.6793 8.91195 18.6793C9.64528 18.6793 10.2453 18.0793 10.2453 17.3459C10.2453 16.6126 9.64528 16.0126 8.91195 16.0126Z" fill="#8433AA"/>
</svg>
