<svg width="33" height="32" viewBox="0 0 33 32" fill="none" xmlns="http://www.w3.org/2000/svg">
<path d="M20.252 8.19982H8.25203C5.30537 8.19982 2.9187 10.5865 2.9187 13.5332V8.71976C2.9187 5.99976 5.1187 3.79976 7.8387 3.79976H15.332C18.052 3.79976 20.252 5.47982 20.252 8.19982Z" fill="#8433AA"/>
<path opacity="0.4" d="M23.5587 16.2664C22.892 16.9197 22.572 17.9064 22.8387 18.9064C23.172 20.1464 24.3987 20.9331 25.6787 20.9331H26.9187V22.8664C26.9187 25.8131 24.532 28.1998 21.5854 28.1998H8.25203C5.30537 28.1998 2.9187 25.8131 2.9187 22.8664V13.5331C2.9187 10.5864 5.30537 8.19976 8.25203 8.19976H21.5854C24.5187 8.19976 26.9187 10.5998 26.9187 13.5331V15.4664H25.4787C24.732 15.4664 24.052 15.7597 23.5587 16.2664Z" fill="#8433AA"/>
<path d="M29.585 16.8273V19.5739C29.585 20.3206 28.9717 20.934 28.2117 20.934H25.6383C24.1983 20.934 22.8784 19.8806 22.7584 18.4406C22.6784 17.6006 22.9983 16.814 23.5583 16.2673C24.0517 15.7606 24.7317 15.4672 25.4784 15.4672H28.2117C28.9717 15.4672 29.585 16.0806 29.585 16.8273Z" fill="#8433AA"/>
<path d="M17.5856 15.8659H9.58557C9.0389 15.8659 8.58557 15.4126 8.58557 14.8659C8.58557 14.3192 9.0389 13.8659 9.58557 13.8659H17.5856C18.1322 13.8659 18.5856 14.3192 18.5856 14.8659C18.5856 15.4126 18.1322 15.8659 17.5856 15.8659Z" fill="#8433AA"/>
</svg>
