<svg width="80" height="80" viewBox="0 0 80 80" fill="none" xmlns="http://www.w3.org/2000/svg">
<rect x="0.00012207" width="80" height="80" rx="40" fill="#F93939"/>
<path fill-rule="evenodd" clip-rule="evenodd" d="M58.6778 46.1448L52.4805 49.3982L53.6645 42.5022L48.6511 37.6115L55.5845 36.5982L58.6778 30.3262L61.7711 36.6035L68.7045 37.6168L63.6911 42.4968L64.8751 49.3928" fill="white"/>
<path fill-rule="evenodd" clip-rule="evenodd" d="M34.6668 58.6663C44.9761 58.6663 53.3335 50.309 53.3335 39.9997C53.3335 29.6903 44.9761 21.333 34.6668 21.333C24.3575 21.333 16.0001 29.6903 16.0001 39.9997C16.0001 50.309 24.3575 58.6663 34.6668 58.6663ZM40.0001 53.333C47.3601 53.333 53.3335 47.3597 53.3335 39.9997C53.3335 32.6397 47.3601 26.6663 40.0001 26.6663C32.6401 26.6663 26.6668 32.6397 26.6668 39.9997C26.6668 47.3597 32.6401 53.333 40.0001 53.333Z" fill="white"/>
</svg>
