<svg width="81" height="80" viewBox="0 0 81 80" fill="none" xmlns="http://www.w3.org/2000/svg">
<rect x="0.333374" width="80" height="80" rx="40" fill="white"/>
<path fill-rule="evenodd" clip-rule="evenodd" d="M59 40.0005C59 50.3098 50.6426 58.6672 40.3333 58.6672C30.024 58.6672 21.6666 50.3098 21.6666 40.0005C21.6666 34.0272 34.2 31.5205 44.7493 32.4645C45.8693 32.1658 47.0746 32.0005 48.3333 32.0005C54.2266 32.0005 59 35.5845 59 40.0005Z" fill="#232C80"/>
<path fill-rule="evenodd" clip-rule="evenodd" d="M37.6666 37.333C37.6666 37.333 42.44 31.9997 48.3333 31.9997C54.2266 31.9997 59 35.5837 59 39.9997C59 29.6903 50.6426 21.333 40.3333 21.333C32.8826 21.333 26.4506 25.6957 23.4586 32.0103C21.6666 37.333 21.6666 38.8903 21.6666 39.9997C24.3333 42.6663 27.2986 42.6663 29.6666 42.6663C32.0346 42.6663 34.1626 41.637 35.6293 39.9997L37.6666 37.333Z" fill="#F93939"/>
<path fill-rule="evenodd" clip-rule="evenodd" d="M64.3332 26.6672H74.9999L64.3332 16.0005H58.9999L64.3332 26.6672ZM16.3332 26.6672H5.66656L16.3332 16.0005H21.6666L16.3332 26.6672ZM64.3332 53.3338H74.9999L64.3332 64.0005H58.9999L64.3332 53.3338ZM16.3332 53.3338H5.66656L16.3332 64.0005H21.6666L16.3332 53.3338Z" fill="#151515"/>
</svg>
