<svg width="80" height="80" viewBox="0 0 80 80" fill="none" xmlns="http://www.w3.org/2000/svg">
<g clip-path="url(#clip0_1759_14645)">
<rect width="80" height="80" rx="40" fill="white"/>
<path fill-rule="evenodd" clip-rule="evenodd" d="M0 0H48V37.3333H0V0Z" fill="#1A47B8"/>
<path fill-rule="evenodd" clip-rule="evenodd" d="M48 0V5.33333H112V0H48ZM48 10.6667V16H112V10.6667H48ZM48 21.3333V26.6667H112V21.3333H48ZM48 32V37.3333H112V32H48ZM0 42.6667V48H112V42.6667H0ZM0 53.3333V58.6667H112V53.3333H0ZM0 64V69.3333H112V64H0ZM0 74.6667V80H112V74.6667H0Z" fill="#F93939"/>
<path fill-rule="evenodd" clip-rule="evenodd" d="M5.33325 5.33398V10.6673H10.6666V5.33398H5.33325ZM15.9999 5.33398V10.6673H21.3333V5.33398H15.9999ZM26.6666 5.33398V10.6673H31.9999V5.33398H26.6666ZM37.3333 5.33398V10.6673H42.6666V5.33398H37.3333ZM31.9999 10.6673V16.0007H37.3333V10.6673H31.9999ZM21.3333 10.6673V16.0007H26.6666V10.6673H21.3333ZM10.6666 10.6673V16.0007H15.9999V10.6673H10.6666ZM5.33325 16.0007V21.334H10.6666V16.0007H5.33325ZM15.9999 16.0007V21.334H21.3333V16.0007H15.9999ZM26.6666 16.0007V21.334H31.9999V16.0007H26.6666ZM37.3333 16.0007V21.334H42.6666V16.0007H37.3333ZM5.33325 26.6673V32.0007H10.6666V26.6673H5.33325ZM15.9999 26.6673V32.0007H21.3333V26.6673H15.9999ZM26.6666 26.6673V32.0007H31.9999V26.6673H26.6666ZM37.3333 26.6673V32.0007H42.6666V26.6673H37.3333ZM31.9999 21.334V26.6673H37.3333V21.334H31.9999ZM21.3333 21.334V26.6673H26.6666V21.334H21.3333ZM10.6666 21.334V26.6673H15.9999V21.334H10.6666Z" fill="white"/>
</g>
<defs>
<clipPath id="clip0_1759_14645">
<rect width="80" height="80" rx="40" fill="white"/>
</clipPath>
</defs>
</svg>
