<svg width="81" height="80" viewBox="0 0 81 80" fill="none" xmlns="http://www.w3.org/2000/svg">
<rect x="0.666626" width="80" height="80" rx="40" fill="#249F58"/>
<path fill-rule="evenodd" clip-rule="evenodd" d="M70.0003 53.3329V47.9995H11.3336L22.0003 53.3329H54.0003C54.0003 56.2769 57.5843 58.6662 62.0003 58.6662C66.4163 58.6662 70.0003 56.2769 70.0003 53.3329ZM31.227 20.8315C31.163 20.8315 31.067 20.8635 30.9443 20.9382C30.6563 21.1302 30.091 21.7222 30.0696 22.4049C30.0536 22.7942 29.979 22.7942 30.2297 23.0449C30.411 23.3009 30.603 23.2795 30.9656 23.0822C31.179 22.9222 31.2483 22.8315 31.323 22.5702C31.4083 22.1435 30.859 22.7835 30.7896 22.2929C30.667 21.8449 31.019 21.6529 31.3497 21.2262C31.3603 21.0129 31.3603 20.8529 31.227 20.8422V20.8315ZM36.5763 20.8582C36.4697 20.8795 36.347 21.0182 36.171 21.3275C36.0483 21.6582 35.5097 22.1595 35.9043 23.1942C36.2137 23.8502 36.347 24.9115 36.203 26.1009C35.979 26.4369 35.9363 26.5542 35.643 26.8902C35.2376 27.3329 34.7897 27.2209 34.459 27.0502C34.139 26.8369 33.8937 26.7302 33.7497 26.0582C33.7763 24.9915 33.8403 23.2209 33.643 22.8475C33.355 22.2715 32.875 22.4742 32.6723 22.6502C31.6963 23.5569 31.211 25.0662 30.9123 26.2769C30.6456 27.1515 30.3523 26.8955 30.1497 26.5435C29.6537 26.0742 29.6163 22.4369 29.019 23.0395C28.059 25.7809 29.5683 28.7835 30.619 28.4902C31.3657 28.8102 31.8457 27.3702 32.155 25.7969C32.3683 25.3542 32.5283 25.3009 32.635 25.5302C32.6083 27.6209 32.795 28.0902 33.3283 28.7195C34.523 29.6475 35.515 28.8369 35.595 28.7622L36.5283 27.8342C36.7417 27.6209 37.0083 27.5995 37.3017 27.7915C37.5897 28.0582 37.5523 28.5009 38.155 28.8049C38.6777 29.0182 39.771 28.8582 40.0217 28.4155C40.3683 27.8289 40.4483 27.6262 40.6083 27.4022C40.8537 27.0822 41.275 27.2262 41.275 27.3275C41.2377 27.5142 40.9923 27.7009 41.1577 28.0209C41.451 28.2342 41.5203 28.0955 41.691 28.0475C42.299 27.7595 42.7577 26.4369 42.7577 26.4369C42.7843 25.9462 42.507 25.9835 42.331 26.0849C42.091 26.2289 42.0803 26.2769 41.851 26.4209C41.547 26.4635 40.971 26.6609 40.6883 26.2182C40.395 25.6849 40.395 24.9489 40.171 24.4049C40.171 24.3729 39.7817 23.5675 40.139 23.5195C40.315 23.5515 40.7097 23.6529 40.7683 23.3275C40.9603 23.0075 40.3577 22.1009 39.947 21.6529C39.595 21.2635 39.1043 21.2155 38.6297 21.6102C38.2937 21.9195 38.347 22.2609 38.2777 22.5862C38.1977 22.9595 38.2137 23.4235 38.5977 23.9195C38.9283 24.5702 39.531 25.4129 39.3283 26.5969C39.3283 26.5969 38.9817 27.1622 38.3683 27.0875C38.1017 27.0342 37.6857 26.9275 37.4617 25.2742C37.3017 24.0315 37.5043 22.2875 36.9817 21.4715C36.859 21.1675 36.7577 20.8689 36.587 20.8849L36.5763 20.8582ZM34.8803 20.9969C34.7203 21.0129 34.5443 21.1995 34.4003 21.5569C34.2777 21.8342 34.123 23.2635 34.1497 23.2635C34.043 23.6902 34.5923 23.8715 34.843 23.3275C35.2163 22.3142 35.2163 21.8875 35.2377 21.4715C35.1843 21.1515 35.0403 20.9915 34.8803 21.0022V20.9969ZM41.1363 21.1035C40.9763 21.1249 40.843 21.2209 40.795 21.4662C40.7257 22.0315 40.763 22.3462 40.859 22.8209C40.9283 23.1409 41.3923 23.6635 41.6163 23.9729C42.699 25.4289 43.7497 26.8902 44.7523 28.3995C44.9123 29.5302 45.019 30.6289 45.099 31.7275C45.2697 34.1275 45.3123 37.1142 45.1683 39.6475C45.6163 39.6635 46.3417 38.9169 46.5923 37.8342C46.7523 36.3195 46.539 33.2475 46.5177 32.3515L46.4643 31.0822C47.6377 33.0022 48.7683 35.0289 49.8777 37.2475C50.2883 37.0555 50.1977 34.7675 49.963 34.4475C49.067 32.5275 47.8297 30.6289 47.4403 29.8982C47.2963 29.6315 46.811 28.9009 46.2403 28.0529C46.1337 26.8369 46.0163 25.8129 45.9417 25.5035C45.755 24.2235 46.4643 25.6475 46.3683 24.9062C46.1337 23.6262 45.4297 22.7622 44.5977 21.5889C44.331 21.2155 44.331 21.1302 43.9203 21.6849C43.6803 22.2449 43.6803 22.7142 43.7603 23.1515C43.643 22.9915 43.5097 22.8102 43.3177 22.5755L41.9577 21.4235C41.771 21.2902 41.4083 21.0875 41.1363 21.1035V21.1035ZM59.675 21.3009C59.595 21.2902 59.515 21.3275 59.4083 21.4715C59.2217 21.6315 59.0243 21.9355 59.035 22.3249C59.0723 22.9915 59.195 23.6795 59.2377 24.3515L59.291 24.6182C59.2163 24.5329 59.1523 24.4582 59.115 24.4262C57.7977 23.0395 59.7177 24.1915 58.859 23.1302C58.139 22.3302 57.9257 22.0849 57.3123 21.6049C56.9923 21.4129 56.811 21.0289 56.7097 21.6795C56.667 22.2502 56.6243 22.9169 56.6563 23.3969C56.6563 23.6635 56.939 24.1702 57.179 24.4635C58.0537 25.5462 58.9497 26.6929 59.8457 27.8875C60.0377 30.3249 60.0857 32.5595 60.2723 35.0022C60.251 36.0475 59.931 37.4342 59.6323 37.5622C59.6323 37.5622 59.163 37.8289 58.8537 37.5355C58.6243 37.4449 57.723 36.0262 57.723 36.0262C57.259 35.5995 56.9497 35.7222 56.6243 36.0262C55.7177 36.9009 55.3017 38.5435 54.6883 39.6742C54.5283 39.9249 54.0857 40.1435 53.5897 39.6529C52.3257 37.9249 53.0563 35.4662 52.907 36.1009C51.787 37.3702 52.2777 39.4715 52.5337 39.9249C52.907 40.6715 53.2057 41.1515 53.9203 41.5089C54.587 41.9889 55.0937 41.6955 55.3817 41.3489C56.043 40.6662 56.0537 38.9115 56.363 38.5649C56.5763 37.9249 57.1257 38.0315 57.3923 38.3195C57.659 38.6929 57.9577 38.9329 58.3363 39.1355C58.955 39.6795 59.691 39.7755 60.4163 39.2795C60.9123 39.0022 61.2377 38.6395 61.5257 37.9249C61.8457 37.0929 61.6857 32.7195 61.6163 30.2875L63.003 32.2929C63.195 34.4262 63.2857 36.5329 63.2163 38.5489C63.1737 38.9489 64.619 37.3542 64.603 36.5969C64.603 35.9409 64.6137 35.3382 64.603 34.7835C65.3123 35.9035 65.9897 37.0395 66.6297 38.1969C67.0297 37.9835 66.8963 35.7275 66.6457 35.4235C65.9737 34.2929 65.1097 33.0769 64.443 32.1275C64.3097 30.9382 64.1337 29.5355 64.0483 29.1035C63.9257 28.4315 63.7977 27.4235 63.6057 26.6289C63.5523 26.3249 63.3923 25.3329 63.4457 25.2422C63.5203 25.0129 63.819 25.2422 63.963 24.9862C64.1763 24.7462 63.2057 22.2129 62.7097 21.4982C62.5337 21.1782 62.2083 21.2849 61.8137 21.8182C61.4403 22.1595 61.579 22.9489 61.7177 23.7009C62.0803 25.6209 62.411 27.5622 62.667 29.5142C62.187 28.7942 61.6003 27.9302 61.0243 27.1035L60.9497 26.7302C60.9497 26.6875 60.875 25.1569 60.8057 24.7942C60.7897 24.6449 60.7523 24.6022 60.9123 24.6235C61.0723 24.7622 61.0937 24.7675 61.195 24.8155C61.3657 24.8369 61.515 24.5595 61.4083 24.2982L59.8617 21.4502C59.8083 21.3809 59.7337 21.3169 59.6483 21.3062L59.675 21.3009ZM11.835 21.3542C11.5416 21.3435 11.2323 21.5142 11.355 21.8609C11.2803 22.0475 11.9096 22.6769 12.0216 23.0235C12.1123 23.2742 11.915 24.0635 12.1283 24.1435C12.315 24.2235 12.5763 23.5889 12.6723 23.0075C12.7256 22.6875 12.6883 21.5889 11.9416 21.3649C11.9043 21.3542 11.867 21.3542 11.8243 21.3489L11.835 21.3542ZM66.3417 21.3542C66.2723 21.3649 66.1923 21.4609 66.075 21.7275C65.7817 22.2075 65.6803 23.0609 65.7977 23.8075C66.491 28.5542 67.0243 33.1515 67.131 37.3542C67.067 37.7595 67.0457 37.9729 66.8643 38.4742C66.4483 39.0075 65.9897 39.6689 65.5577 39.9889C65.131 40.3089 64.2137 40.6182 63.915 40.8529C62.955 41.3969 62.955 42.0262 63.723 42.0529C65.0457 41.8929 66.6137 41.7862 67.691 40.1595C67.979 39.7062 68.3203 38.4689 68.331 37.7062C68.4377 33.2795 68.2777 28.9329 67.611 25.7275C67.5683 25.4075 67.4297 24.6982 67.483 24.6075C67.563 24.3835 67.995 24.6235 68.1497 24.3729C68.379 24.1382 67.0297 22.4155 66.5603 21.6795C66.4643 21.4982 66.4003 21.3435 66.3257 21.3595L66.3417 21.3542ZM52.459 21.4289C52.4057 21.4395 52.331 21.5249 52.1817 21.7222C51.8083 22.9275 51.6803 23.9089 51.8243 24.6662C52.7843 29.6262 53.7443 34.1329 53.595 38.8529C54.043 38.8529 54.5657 37.8235 54.7897 36.7995C54.9123 35.3862 54.7043 34.5275 54.6723 33.7062C54.635 32.8742 53.7337 26.1542 53.5523 25.5302C53.3283 24.3462 54.427 25.3702 54.3097 24.6875C53.9257 23.8129 52.9763 22.5542 52.6883 21.7915C52.5817 21.5889 52.5603 21.4022 52.475 21.4182L52.459 21.4289ZM18.6776 21.5249C18.571 21.5462 18.4483 21.6422 18.411 21.7915C18.3843 21.8982 18.4536 22.0742 18.3576 22.1275C18.3043 22.1809 18.1016 22.1435 18.1123 21.8609C18.1123 21.7649 18.043 21.6689 18.0056 21.6102C17.963 21.5889 17.9363 21.5835 17.8616 21.5835C17.771 21.5835 17.771 21.6102 17.723 21.6902C17.7016 21.7649 17.6697 21.8395 17.6697 21.9249C17.659 22.0315 17.6163 22.0582 17.547 22.0742C17.4616 22.0742 17.4776 22.0849 17.4136 22.0369C17.3603 21.9995 17.3177 21.9835 17.3177 21.9089C17.3177 21.8289 17.2963 21.6955 17.275 21.6529C17.2376 21.5995 17.179 21.5782 17.115 21.5622C16.763 21.5622 16.7417 21.9782 16.7577 22.1275C16.731 22.1595 16.7203 22.8742 17.2003 23.0769C17.8403 23.3862 19.0563 23.2529 19.0137 22.2129C19.0137 22.1222 18.987 21.8129 18.9763 21.7329C18.9123 21.5729 18.7896 21.5195 18.6723 21.5355L18.6776 21.5249ZM27.3497 21.5355C27.1257 21.5462 26.923 21.6102 26.763 21.6955C26.3363 22.1062 26.2296 22.7622 26.571 23.1729C26.891 23.3329 27.227 23.6529 27.0083 23.8395C26.0803 24.8262 23.6643 26.4849 23.5417 26.7889V26.8209H23.563V26.8315C23.6857 26.9115 25.2003 26.9115 25.3657 26.8315H25.3763C25.899 26.6342 28.363 23.8182 28.363 23.8182C28.235 23.7115 28.1177 23.6262 27.9897 23.5142C27.851 23.3969 27.867 23.2795 27.9897 23.1622C28.5977 22.8102 28.4056 22.0262 28.0856 21.6689C27.819 21.5515 27.5737 21.5089 27.3497 21.5249V21.5355ZM50.0163 21.5355C49.9523 21.5515 49.8723 21.6422 49.7497 21.9089C49.4563 22.3889 49.259 23.2155 49.2857 23.9889C49.915 28.3622 50.107 32.1862 50.523 36.5595C50.555 36.9862 50.491 37.5942 50.2137 37.8395C49.1683 38.9275 47.6697 40.2609 46.0377 40.8795C45.8617 41.0769 46.475 41.9142 47.2643 41.9142C48.587 41.7542 49.7497 41.0182 50.8377 39.0609C51.1203 38.6075 51.627 37.6315 51.6377 36.8742C51.7443 32.4369 51.4243 28.9809 50.7523 25.7809C50.715 25.4609 50.7417 25.0875 50.795 25.0022C50.8803 24.8955 51.1683 25.0022 51.3283 24.7515C51.5523 24.5169 50.7203 22.6022 50.251 21.8715C50.155 21.6849 50.1017 21.5355 50.0163 21.5409V21.5355ZM14.9016 21.6795C14.7203 21.7009 14.5496 21.8395 14.4643 22.0529C14.4376 22.7462 14.4323 23.4395 14.5176 24.0902C14.8376 25.2262 14.9283 26.2235 15.083 27.3809C15.1363 28.9382 14.187 28.0529 14.2297 27.2849C14.443 26.2822 14.3896 24.7089 14.1976 24.3089C14.0376 23.9089 13.867 23.8129 13.4936 23.8822C13.2003 23.8609 12.4376 24.6822 12.2243 26.0689C12.2243 26.0689 12.043 26.7729 11.9683 27.4022C11.8616 28.1115 11.3923 28.6182 11.0616 27.3062C10.779 26.3462 10.6083 23.9995 10.1336 24.5435C9.99498 26.3782 9.83498 29.6102 11.3923 29.9409C13.2803 30.1222 12.235 26.7515 12.9176 26.1382C13.051 25.8449 13.291 25.8395 13.307 26.2182V29.0822C13.2856 30.0102 13.8936 30.2875 14.3736 30.4795C14.8696 30.4422 15.195 30.4582 15.387 30.9382L15.627 35.8982C15.627 35.8982 16.7683 36.2182 16.8216 33.1089C16.875 31.2795 16.4483 29.7489 16.699 29.3915C16.7096 29.0395 17.1577 29.0182 17.467 29.1942C17.963 29.5409 18.1816 29.9675 18.9496 29.7969C20.123 29.4769 20.8163 28.9115 20.8323 28.0155C20.779 27.1622 20.6723 26.3089 20.299 25.4555C20.3523 25.3062 20.0857 24.9062 20.139 24.7515C20.3417 25.0715 20.6617 25.0502 20.7257 24.7515C20.5337 24.0955 20.2243 23.4715 19.723 23.2049C19.3123 22.8315 18.7097 22.9115 18.4857 23.6689C18.379 24.5435 18.8056 25.5782 19.4456 26.4262C19.5736 26.7569 19.7657 27.3062 19.6803 27.8022C19.3443 27.9942 19.0083 27.9089 18.7203 27.6155C18.7203 27.6155 17.7976 26.9222 17.7976 26.7622C18.0483 25.1889 17.851 25.0022 17.7176 24.5755C17.6216 23.9675 17.3336 23.7755 17.1043 23.3595C16.8696 23.1089 16.555 23.1089 16.411 23.3595C15.995 24.0689 16.187 25.5995 16.4856 26.2769C16.699 26.9062 17.0296 27.3009 16.875 27.3009C16.747 27.6475 16.4803 27.5675 16.2883 27.1569C16.0216 26.3035 15.9576 25.0449 15.9576 24.4742C15.8776 23.7702 15.787 22.2609 15.3177 21.8769C15.195 21.7062 15.051 21.6475 14.907 21.6635L14.9016 21.6795ZM21.5256 21.6795C21.435 21.7009 21.3283 21.7542 21.2056 21.7862C20.8056 21.9089 20.4323 22.2555 20.5497 22.9275C21.0297 25.8075 21.3337 28.0102 21.8083 30.8902C21.8777 31.2315 21.595 31.6742 21.2323 31.6369C20.6136 31.2102 20.459 30.3569 19.403 30.3995C18.635 30.3995 17.7603 31.2422 17.6536 32.0422C17.5256 32.6822 17.483 33.3755 17.6536 33.9302C18.187 34.5702 18.8376 34.5062 19.403 34.3569C19.867 34.1702 20.2563 33.7169 20.4163 33.8235C20.523 33.9995 20.4057 35.4982 18.2297 36.6502C16.8857 37.2582 15.819 37.3969 15.243 36.3089C14.891 35.6262 15.275 33.0235 14.4003 33.6209C11.8083 40.2982 20.4643 41.2262 21.4297 33.8982C21.4937 33.6849 21.6803 33.4822 21.819 33.5355C21.8723 33.5622 21.9256 33.6422 21.947 33.7915C21.7443 40.4262 15.2483 40.8849 14.1496 38.7942C13.8723 38.3035 13.7923 37.2049 13.7656 36.5542C13.7123 36.1542 13.6163 35.9249 13.499 35.8342C13.2323 35.6369 12.8803 36.1542 12.8056 37.0449C12.699 37.7649 12.7256 37.9622 12.7256 38.6555C13.0776 43.8982 21.435 41.6422 22.795 37.3222C23.467 35.0822 22.779 33.3915 23.0083 33.1835L23.0243 33.1729H23.0403L23.067 33.1622C23.899 34.0582 25.0617 33.2689 25.3177 32.9649C25.4243 32.8049 25.7017 32.6982 25.8937 32.9115C26.5337 33.3702 27.675 33.1515 27.9096 32.3249C28.0483 31.5249 28.1657 30.7035 28.1923 29.8449C27.7657 29.9782 27.4243 30.0742 27.2857 30.2182C27.2537 30.2555 27.2323 30.2982 27.2217 30.3409L27.115 31.0502C27.115 31.0769 27.1043 31.0929 27.0937 31.1035C27.0777 31.1409 27.0403 31.1675 27.019 31.1835C26.8697 31.2635 26.6083 31.2209 26.5923 31.0022C26.395 30.0955 25.5683 29.9782 25.067 31.3915C24.731 31.6582 24.107 31.7115 24.0537 31.3062C24.1337 30.3569 23.7497 30.2289 22.987 30.6769L22.251 25.1302C22.571 25.1142 22.859 25.3435 23.1577 24.9809C22.8377 23.9995 22.171 22.0049 21.7923 21.8129H21.7817L21.7283 21.7595C21.7283 21.7489 21.7123 21.7435 21.7016 21.7382L21.6803 21.7062C21.659 21.7062 21.6376 21.6955 21.627 21.6902C21.5896 21.6795 21.5576 21.6795 21.5203 21.6795H21.5256ZM47.3497 21.7009C47.019 21.6902 46.6563 21.8982 46.795 22.3142C46.7097 22.5435 47.5043 23.3115 47.6323 23.7275C47.8617 24.3675 47.4563 24.9915 47.6963 25.0822C47.9203 25.1782 48.2297 24.4155 48.3363 23.7062C48.475 23.1302 48.0697 21.9569 47.483 21.7169L47.3497 21.7062V21.7009ZM27.227 22.3995C27.3763 22.3889 27.5577 22.5275 27.6537 22.7195C27.7443 22.9329 27.6963 23.1302 27.547 23.1675C27.387 23.2049 27.1843 23.0715 27.0883 22.8582C26.9923 22.6449 27.035 22.4475 27.195 22.4102H27.227V22.3995ZM64.5443 23.3702C64.2403 23.3595 63.9043 23.5835 64.043 24.0369C63.9683 24.2822 64.683 25.1142 64.8057 25.5729C64.9123 25.8929 64.6457 26.9382 64.859 27.0342C65.0617 27.1409 65.339 26.3089 65.4457 25.5409C65.5097 25.1142 65.2003 23.6475 64.6723 23.3862C64.635 23.3755 64.5923 23.3649 64.5497 23.3649L64.5443 23.3702ZM43.9043 23.8822C43.9417 24.0049 43.9683 24.1275 43.9843 24.2555C44.0483 24.5222 44.1017 24.7889 44.155 25.0662C43.9203 24.7355 43.7283 24.4689 43.6377 24.3729C43.1043 23.7329 43.6483 23.9569 43.9043 23.8822V23.8822ZM48.667 26.2182C48.5497 26.2395 48.4377 26.3409 48.4003 26.5009C48.3683 26.5969 48.443 26.7675 48.347 26.8209C48.2937 26.8742 48.0803 26.8422 48.0963 26.5542C48.0963 26.4582 48.027 26.3569 47.9897 26.3035C47.947 26.2769 47.9203 26.2662 47.8457 26.2662C47.755 26.2662 47.755 26.2929 47.707 26.3729C47.6857 26.4475 47.6537 26.5222 47.6537 26.6129C47.6537 26.7195 47.611 26.7515 47.5363 26.7729C47.451 26.7729 47.467 26.7729 47.3977 26.7355C47.355 26.6822 47.307 26.6715 47.307 26.5969C47.307 26.5169 47.291 26.3942 47.2643 26.3409C47.227 26.2875 47.1737 26.2715 47.1043 26.2502C46.7577 26.2502 46.731 26.6555 46.7523 26.8049C46.731 26.8369 46.715 27.5622 47.195 27.7649C47.8457 28.0689 49.0617 27.9249 49.0083 26.8902C49.0083 26.7995 48.9817 26.4902 48.9763 26.4102C48.907 26.2502 48.7843 26.1969 48.6723 26.2129L48.667 26.2182ZM26.9603 26.4315C26.8856 26.4315 26.779 26.4529 26.6563 26.5275C26.0857 26.8369 25.867 27.7542 26.2297 28.2875C26.5497 28.7675 27.083 28.5915 27.1523 28.5915C27.7123 28.6662 28.043 27.5462 28.043 27.5462C28.043 27.5462 28.059 27.2262 27.403 27.8235C27.115 27.8769 27.083 27.7702 27.0083 27.6102C26.9443 27.3275 26.955 27.0235 27.0883 26.7409C27.1523 26.5649 27.0883 26.4529 26.9603 26.4422V26.4315ZM57.643 26.5755C57.323 26.5595 56.987 26.7675 56.8963 27.1995C56.8963 27.4555 57.0137 27.5942 56.9923 27.8289C56.9657 27.9622 56.8323 28.0422 56.5017 27.8929C56.555 27.8395 56.2883 27.4769 56.2883 27.4769C56.0377 27.3169 55.7017 27.4769 55.4777 27.6262C55.355 27.8502 55.2643 28.2289 55.403 28.6129C55.7657 29.2902 57.019 30.4422 57.6163 30.4529C57.627 29.8449 57.6857 29.0342 57.723 28.5329C57.7337 28.3409 57.7763 28.1329 57.963 28.0849C58.1443 28.0315 58.459 28.2662 58.459 28.0689C58.427 27.6849 58.3523 27.1089 58.139 26.8422C58.0217 26.6822 57.835 26.5862 57.6483 26.5755H57.643ZM32.2403 28.6929L32.2243 28.7089C32.2243 28.7089 32.2136 28.7089 32.2083 28.7195C32.1443 28.7729 32.0697 28.8795 31.9043 28.9862C31.6217 29.3062 31.5737 29.5355 31.5843 30.1755C31.6057 30.2449 32.1176 31.6849 32.5603 32.6929C32.859 33.7435 33.131 34.9489 32.9337 36.0849C32.2403 37.5889 30.8536 38.9382 29.5043 39.6742C28.811 39.8875 28.2243 39.8129 28.0643 39.6635C27.6697 39.3969 27.6643 38.9169 27.691 38.8422V38.8262C28.8217 38.0369 30.1177 37.3969 31.131 35.2689C31.4297 34.4529 31.5256 33.9622 31.227 32.7089C31.1096 32.2289 30.9603 31.8555 30.6403 31.5142H30.651C30.843 31.4235 31.3443 31.7915 31.4243 31.5675C31.3017 30.9595 30.891 30.1542 30.4376 29.7382C30.0323 29.3649 29.5843 29.3275 29.2217 29.6635C28.8057 29.8982 28.7203 30.7302 28.9177 31.4555C29.1417 31.9995 29.7443 32.0955 30.171 33.1995C30.1816 33.2742 30.315 34.0262 30.1017 34.3355C29.9203 34.8795 27.675 36.6502 27.515 36.7569L27.499 36.7675L27.4883 36.7782H27.4777H27.467V36.7622C27.4563 36.7195 27.467 36.6022 27.467 36.4262C27.451 36.0955 27.5897 35.3435 27.5737 35.2102V35.1995C26.827 35.6795 26.5763 37.1462 26.443 37.5835C24.5603 38.8795 22.427 39.8449 21.195 41.1569C20.555 42.1702 25.611 40.0155 26.1977 39.7542L26.2137 39.7702C26.331 39.8929 26.3363 40.3195 26.6723 40.7089C27.2057 41.4182 28.315 41.8555 29.403 41.5835C31.227 40.9275 32.283 39.6849 33.3497 38.3035C33.499 38.0902 33.739 37.9089 33.963 38.0795C34.6937 39.7222 36.8163 40.8955 39.5523 41.0129C40.1923 40.2449 39.8883 39.8662 39.6323 39.7062C39.5523 39.6529 38.2723 39.1515 38.0696 38.6555C37.947 38.1969 38.251 37.7862 38.859 37.4822C40.619 37.2689 42.347 37.0289 44.0217 36.4902C44.0377 35.9249 44.3683 35.0875 44.5923 34.7195C44.7523 34.4689 44.843 34.4422 44.8803 34.4102V34.3995H44.891V34.3835V34.3302L44.603 34.1595L38.987 34.1382C38.9177 34.1115 38.8696 34.0849 38.8376 34.0582L38.827 34.0422C38.827 34.0422 38.8163 34.0422 38.8163 34.0315C38.8163 34.0209 38.8057 34.0209 38.8057 34.0209V34.0262V34.0155V34.0049V33.9942L38.8163 33.9782C38.843 33.9462 38.9123 33.9089 38.9923 33.8715C40.3363 33.6955 42.715 33.3062 42.875 31.0182C42.8483 29.8235 42.363 29.0449 40.9017 28.8315C39.8243 28.9115 39.0563 29.9515 39.179 31.0929C39.1257 31.3969 39.2857 31.9995 38.9657 32.0689C36.907 32.2609 34.6563 33.5515 34.5817 34.4795H34.571H34.5603H34.5496C34.5496 34.4902 34.539 34.4902 34.5337 34.4902H34.5123H34.5017H34.4803C34.347 34.4475 34.1763 34.2235 34.203 33.9195C34.123 32.3195 33.6003 30.5062 32.7897 29.1195C32.4963 28.8262 32.363 28.7089 32.2883 28.6929H32.2723H32.2563H32.2456H32.2403ZM37.6163 29.5355C37.5097 29.5569 37.387 29.6529 37.3497 29.8129C37.323 29.9195 37.403 30.0902 37.307 30.1435C37.2537 30.1969 37.0403 30.1649 37.051 29.8769C37.051 29.7862 36.9817 29.6849 36.9443 29.6262C36.9017 29.5995 36.875 29.5942 36.8057 29.5942C36.715 29.5942 36.7096 29.6155 36.6616 29.6902C36.635 29.7649 36.6083 29.8502 36.6083 29.9302C36.5977 30.0369 36.555 30.0689 36.4856 30.0795C36.4003 30.0795 36.4217 30.0955 36.3523 30.0529C36.3097 30.0102 36.2563 29.9889 36.2563 29.9142C36.2563 29.8342 36.2403 29.7009 36.219 29.6475C36.1817 29.6102 36.123 29.5942 36.059 29.5729C35.7017 29.5729 35.6857 29.9729 35.7017 30.1275C35.675 30.1542 35.659 30.8742 36.139 31.0769C36.779 31.3862 38.3257 31.2049 37.9523 30.2075C37.9523 30.1169 37.9257 29.8075 37.9203 29.7275C37.851 29.5675 37.7283 29.5142 37.611 29.5302L37.6163 29.5355ZM59.2963 30.4262H59.243C59.243 30.4262 56.2457 32.5595 56.1763 32.6342C55.8777 32.9009 56.027 33.8235 56.1763 33.7169C56.3897 33.7969 59.403 31.7542 59.3443 31.5142C59.4777 31.5249 59.5417 30.4635 59.291 30.4209L59.2963 30.4262ZM40.4483 30.7462C40.5657 30.7302 40.7257 30.7729 40.875 30.8529C41.1043 30.9915 41.2483 31.1835 41.2217 31.3329V31.3542C41.211 31.3542 41.211 31.3542 41.211 31.3649V31.3755C41.211 31.3755 41.2003 31.3755 41.2003 31.3862C41.2003 31.3969 41.1843 31.4075 41.1737 31.4182C41.067 31.5249 40.8217 31.5035 40.587 31.3649C40.363 31.2422 40.2297 31.0449 40.2403 30.9062V30.8902L40.267 30.8369C40.267 30.8369 40.267 30.8262 40.2777 30.8209L40.3043 30.7889C40.3417 30.7622 40.3897 30.7355 40.4483 30.7355V30.7462ZM14.219 31.2795C12.6723 31.3115 10.395 33.3169 10.3363 34.4262L15.243 32.0795C14.9763 31.6742 15.227 31.3115 14.219 31.2795V31.2795ZM19.2483 31.9729C19.3977 31.9835 19.5577 32.0582 19.643 32.2715C19.7177 32.4689 19.643 32.6715 19.5523 32.7729V32.7889C19.4776 32.8742 19.2536 32.8422 19.0883 32.8422C18.891 32.8315 18.795 32.7995 18.6776 32.6395C18.6136 32.4529 18.7843 32.2769 18.8643 32.1489L18.9017 32.0955C18.955 32.0422 19.0616 31.9995 19.1683 31.9889L19.2376 31.9782L19.2483 31.9729ZM58.715 32.5969C58.4323 32.6289 58.171 32.8902 58.2883 33.3062C58.2137 33.5515 58.6617 34.4102 58.7843 34.8635C58.891 35.1835 58.6457 36.1062 58.8643 36.1969C59.067 36.3035 59.595 35.6635 59.579 34.8422C59.6323 34.4155 59.4297 32.8689 58.9017 32.6129C58.8377 32.5969 58.7737 32.5915 58.7097 32.5969H58.715ZM25.2003 34.1115C24.955 34.1275 24.7363 34.2555 24.8377 34.6022C24.8217 34.8475 25.531 35.1515 25.5683 35.7222C25.6643 35.9675 25.4083 36.7355 25.6217 36.7995C25.8137 36.8795 26.0803 36.2662 26.1817 35.7115C26.235 35.4022 25.9363 34.3249 25.435 34.1275C25.355 34.1062 25.275 34.1009 25.195 34.1062L25.2003 34.1115ZM35.227 35.4769H35.291C35.9203 35.6475 36.8377 35.6689 37.6377 35.7435C38.2937 35.7969 38.6137 36.2982 38.011 36.5169C37.403 36.7195 36.8217 36.8902 36.8217 37.7542C36.8963 38.1809 36.875 38.4049 36.811 38.5009C36.811 38.5169 36.795 38.5275 36.7897 38.5329C36.7897 38.5329 36.7897 38.5435 36.779 38.5435V38.5542H36.763L36.7257 38.5702H36.699C36.555 38.5969 36.347 38.4635 36.1923 38.3782C35.819 38.1115 34.779 37.4715 34.6297 36.0849C34.6083 35.7649 34.843 35.4982 35.2163 35.4715L35.227 35.4769ZM10.7256 36.5435C10.6883 36.5435 10.619 36.6609 10.5123 36.7942C9.58432 38.2609 9.49898 40.4529 10.011 41.1142C10.2776 41.4182 10.7256 41.5569 11.0563 41.4609C11.643 41.2102 11.8936 40.0315 11.7496 39.6049C11.563 39.3009 11.4083 39.2529 11.2163 39.5089C10.8056 40.3355 10.6296 39.7649 10.603 39.2955C10.539 38.4262 10.6243 37.6155 10.7203 36.9755C10.7736 36.6555 10.7736 36.5329 10.7203 36.5329L10.7256 36.5435ZM42.1763 38.4742C42.107 38.4742 42.0377 38.4849 41.963 38.5275C41.947 38.5275 41.3017 38.9542 41.0937 39.2635C40.9657 39.3595 40.987 39.4395 41.019 39.6102C41.115 39.8395 41.2857 39.7702 41.4883 39.6635C41.755 39.6209 41.8777 39.7969 41.8617 40.1115C41.739 40.5115 41.915 40.6555 41.915 40.6822C41.915 40.7035 42.1657 40.9222 42.4643 40.7515C43.0883 40.5115 43.4777 40.2715 44.3577 40.0849C44.587 40.0849 44.571 39.4662 44.2083 39.4449C43.7283 39.4662 43.3017 39.4982 42.8217 39.8715C42.5283 39.9355 42.4803 39.7542 42.411 39.5942C42.3363 39.1995 42.5817 38.9222 42.5283 38.6235C42.539 38.6395 42.379 38.4955 42.171 38.4849L42.1763 38.4742ZM62.315 39.2209L61.8883 39.2635C61.6963 39.3009 61.6323 39.3862 61.595 39.6209C61.611 39.9675 61.8243 39.9515 62.0483 40.0902C62.1763 40.2502 62.2617 40.3995 62.0377 40.6769C61.8243 40.8635 61.6803 40.9702 61.467 41.1569C61.3763 41.3275 61.307 41.5835 61.6163 41.6689C62.1763 41.8289 63.4723 40.9862 63.4723 40.9755C63.6857 40.8155 63.611 40.5115 63.595 40.5115C63.467 40.3729 63.1897 40.4582 63.0083 40.4315C62.9177 40.4315 62.635 40.3889 62.763 40.1329C62.8803 39.9729 62.923 39.8822 63.003 39.6849C63.083 39.4929 63.003 39.3649 62.6937 39.2582C62.5337 39.2262 62.427 39.2155 62.3043 39.2209H62.315ZM54.5657 59.8075C56.0057 59.8769 57.3497 59.8235 58.779 59.8929C59.0137 60.0849 58.9017 60.5329 58.7523 60.6075L58.7257 60.6182H58.7097H58.6883L57.483 60.5862V60.5169C57.3657 60.1862 56.5657 60.2075 56.3737 60.4635V60.4795C56.363 60.4795 56.3577 60.4955 56.3577 60.5009L56.347 60.5275V60.5915C55.707 60.6715 55.147 60.5702 54.5177 60.5489C54.331 60.3195 54.3577 59.9089 54.571 59.8022L54.5657 59.8075Z" fill="white"/>
</svg>
