<svg width="80" height="80" viewBox="0 0 80 80" fill="none" xmlns="http://www.w3.org/2000/svg">
<g clip-path="url(#clip0_1759_14648)">
<rect width="80" height="80" rx="40" fill="white"/>
<path d="M43.4691 65.5356H41.1463L41.727 56.2445C41.6941 55.7552 41.4593 55.6265 40.5656 55.6638L31.2745 56.8251C31.2745 56.8251 33.0166 54.5024 33.0166 53.341C33.0166 52.1796 22.5641 44.6306 22.5641 44.6306C22.5641 44.6306 24.8869 44.0499 25.4676 43.4692C26.0482 42.8885 23.1448 36.5009 23.1448 36.5009C23.1448 36.5009 29.0459 38.8236 29.5324 38.2429C30.0189 37.6622 30.6938 35.3395 30.6938 35.3395C30.6938 35.3395 35.3393 40.5657 36.5007 40.5657C37.6621 40.5657 34.178 27.7905 34.178 27.7905C34.178 27.7905 37.0814 30.1132 38.2428 30.1132C39.4042 30.1132 42.3077 22.5642 42.3077 22.5642C42.3077 22.5642 45.2111 30.1132 45.7918 30.1132C46.3725 30.1132 50.4374 27.7905 50.4374 27.7905C50.4374 27.7905 47.5339 39.985 48.1146 40.5657C48.6953 41.1464 53.9216 35.3395 53.9216 35.3395C53.9216 35.3395 54.5022 37.6622 55.0829 38.2429C55.6636 38.8236 61.4706 36.5009 61.4706 36.5009C61.4706 36.5009 58.5671 42.8885 59.1478 43.4692C59.7285 44.0499 62.0513 44.6306 62.0513 44.6306C62.0513 44.6306 51.5988 52.1796 51.5988 53.341C51.5988 54.5024 52.7602 56.8251 52.7602 56.8251L44.0498 55.6638C43.3496 55.463 43.1069 55.6154 42.8884 56.2445L43.4691 65.5356Z" fill="#F93939"/>
<rect x="73.3333" width="28.2051" height="84.6154" fill="#F93939"/>
<rect x="-16.9231" width="28.2051" height="84.6154" fill="#F93939"/>
</g>
<defs>
<clipPath id="clip0_1759_14648">
<rect width="80" height="80" rx="40" fill="white"/>
</clipPath>
</defs>
</svg>
