<svg width="81" height="80" viewBox="0 0 81 80" fill="none" xmlns="http://www.w3.org/2000/svg">
<g clip-path="url(#clip0_1759_14646)">
<rect x="0.666626" width="80" height="80" rx="40" fill="#1A47B8"/>
<path fill-rule="evenodd" clip-rule="evenodd" d="M-3.41849 0H-15.333V13.3333L84.6878 80L96.667 80V66.6667L-3.41849 0Z" fill="white"/>
<path d="M-11.3591 0L96.667 72.189V80H92.7863L-15.333 7.73631V0H-11.3591Z" fill="#F93939"/>
<path fill-rule="evenodd" clip-rule="evenodd" d="M86.0003 0H96.667V13.3333C96.667 13.3333 27.3859 57.7496 -4.66634 80H-15.333V66.6667L86.0003 0Z" fill="white"/>
<path d="M96.667 0H93.0497L-15.333 72.2511V80H-11.3591L96.667 7.79474V0Z" fill="#F93939"/>
<path fill-rule="evenodd" clip-rule="evenodd" d="M25.3981 0H56.0291V24.6764H96.667V55.3074H56.0291V80H25.3981V55.3074H-15.333V24.6764H25.3981V0Z" fill="white"/>
<path fill-rule="evenodd" clip-rule="evenodd" d="M31.8249 0H49.5091V30.7692H96.667V49.2308H49.5091V80H31.8249V49.2308H-15.333V30.7692H31.8249V0Z" fill="#F93939"/>
</g>
<defs>
<clipPath id="clip0_1759_14646">
<rect x="0.666626" width="80" height="80" rx="40" fill="white"/>
</clipPath>
</defs>
</svg>
